<?xml version="1.0" ?><svg baseProfile="tiny" id="Layer_1" version="1.2" viewBox="0 0 512 512" xml:space="preserve" xmlns="http://www.w3.org/2000/svg" xmlns:xlink="http://www.w3.org/1999/xlink"><g><g><path d="M268.5,409.2h-25c-21.2,0-38.4-17.2-38.4-38.4v-55.7c0-21.2,17.2-38.4,38.4-38.4h25    c21.2,0,38.4,17.2,38.4,38.4v55.7C306.9,392,289.7,409.2,268.5,409.2z" fill="#EDBB98" id="XMLID_13_"/><path d="M306.9,369.9v0.9c0,21.2-17.2,38.4-38.4,38.4h-25c-21.2,0-38.4-17.2-38.4-38.4v-0.9    C125,387.2,62.7,440.5,46,505.6c-0.2,0.9,106,0,210,0c104,0,210.2,0.9,210,0C449.3,440.5,387,387.2,306.9,369.9z" fill="#EDBB98" id="XMLID_12_"/><path d="M46.1,505.6C46.2,505.6,46.2,505.6,46.1,505.6c1.7,0.3,14.3,0.4,33.1,0.4c0,0,0,0,0,0    c39.5,0,108.6-0.4,176.7-0.4c68.1,0,137.3,0.4,176.7,0.4c0,0,0,0,0,0c18.8,0,31.4-0.1,33-0.3c0,0,0.1,0,0.1,0c0,0,0,0,0.1,0    c0,0,0.1,0,0.1,0c-0.7-2.9-1.6-5.8-2.5-8.6c-0.1-0.4-0.3-0.9-0.4-1.4c0,0,0,0,0,0c-1-3-2.1-6-3.3-8.9c0,0,0,0,0,0    c-1.2-2.9-2.5-5.8-3.9-8.7c0,0,0,0,0,0c-1.4-2.9-2.9-5.7-4.4-8.5c0,0,0,0,0,0c-1.6-2.8-3.2-5.6-5-8.3c0,0,0,0,0,0    c-1.7-2.7-3.6-5.4-5.5-8.1c0,0,0,0,0,0c-1.9-2.7-3.9-5.3-6-7.8c0,0,0,0,0,0c-4.2-5.1-8.6-10.1-13.4-14.9    c-4.8,66.6-98.5-15.6-162.6,7.7c-64.1-23.2-163.7,58.9-168.5-7.7c-4.8,4.8-9.3,9.7-13.4,14.9c0,0,0,0,0,0c-2.1,2.6-4.1,5.2-6,7.8    c0,0,0,0,0,0c-1.9,2.7-3.7,5.3-5.5,8.1c0,0,0,0,0,0c-1.7,2.7-3.4,5.5-5,8.3c0,0,0,0,0,0c-1.6,2.8-3,5.6-4.4,8.5c0,0,0,0,0,0    c-1.4,2.9-2.7,5.8-3.9,8.7c0,0,0,0,0,0c-1.2,2.9-2.3,5.9-3.3,8.9c-1,3.1-2.1,6.5-3,10C46,505.6,46,505.6,46.1,505.6    C46.1,505.6,46.1,505.6,46.1,505.6z" fill="#D4145A" id="XMLID_11_"/><path d="M267.6,429.3" fill="#110102" id="XMLID_10_"/><path d="M258.9,433.2" fill="#110102" id="XMLID_9_"/></g><path d="M146.1,249.6c2.6,3.3-2.6,18.7-3.4,22c-3.3,13.9-15.5,25-21.3,37.9   c-6.9,15.3-9.2,32-7.7,48.7c0,0,35,107.8,28.5,131.8c0,0,11.7-42.8,3.9-66.1c0,0,10.3,46.5,8.1,81.9c0,0,14.3-37.2,4.7-82.6   c0,0,23.7,39.2,21.3,66.2c0,0,5.4-52-3.7-74.7c0,0,22.7,36.3,21.4,65.5c0,0,4.5-50.6-4.7-77.8c0,0,19.5,35.6,20.2,48   c-0.4-6.9,0.9-14.1,0.5-21.1c-0.6-11.8-3.6-23.2-6.5-34.7c-3.5-13.7-3.8-19.7,1-32.8c3.2-8.7,5.7-18.1,5-27.4   C213.5,334.5,146.2,249.6,146.1,249.6z" fill="#3F2820" id="XMLID_8_"/><path d="M404.4,223.7C401.3,62,287,46.6,256.6,45.4l-0.1,0l-0.1,0c0,0-0.1,0-0.2,0c0,0-0.1,0-0.2,0   l-0.1,0l-0.1,0C225.7,46.6,111.3,62,108.2,223.7c0,0,116.2,106.3,145.9,38.6l-6.3,79.5l8.2-0.2l0.2,0l0.2,0l8.2,0.2l31-95.8   C325.5,313.7,404.4,223.7,404.4,223.7z" fill="#3F2820" id="XMLID_7_"/><path d="M404.4,223.7C401.3,62,287,46.6,256.6,45.4l-0.1,0l-0.1,0c0,0-0.1,0-0.2,0c0,0-0.1,0-0.2,0   l-0.1,0l-0.1,0C225.7,46.6,111.3,62,108.2,223.7c0,0,116.2,106.3,145.9,38.6l41.6-16.3C325.5,313.7,404.4,223.7,404.4,223.7z" fill="#3F2820" id="XMLID_6_"/><path d="M308.5,58.2c1.5-3.2,2.3-6.8,2.3-10.9C310.8,24.5,286.3,6,256,6s-54.8,18.5-54.8,41.2   c0,4.2,0.8,7.9,2.4,11.1C224.1,43.5,288.1,43.5,308.5,58.2z" fill="#3F2820" id="XMLID_5_"/><ellipse cx="376.9" cy="226.1" fill="#F4C5A2" id="XMLID_4_" rx="27.3" ry="37.7" transform="matrix(0.9772 0.2124 -0.2124 0.9772 56.6288 -74.8959)"/><ellipse cx="135.1" cy="226.1" fill="#F4C5A2" id="XMLID_3_" rx="27.3" ry="37.7" transform="matrix(-0.9772 0.2124 -0.2124 -0.9772 315.167 418.3606)"/><ellipse cx="256.3" cy="221.3" fill="#F4C5A2" id="XMLID_2_" rx="117.3" ry="136.9"/><path d="M158.9,108.4c0,0,29.2,32.6,64.6,37.4c0,0,34.5,4.4,38.4,17c0,0-1.9-17.5-25.3-27.2   c0,0,37.4-1,44.7,24.8c0,0,0.8-31.1-25.1-37.4c0,0,34.3,0.8,44.1,23.8c0,0-3.4-24.8-25.5-33.1c0,0,42.5,5.3,44.2,38.9   c0,0,5.5-25.8-14.1-39.9c0,0,23.6,4.4,30.5,29.2c0,0,13.1,36.3,19.9,43c0,0,6.8,13.4,0,44c0,0,9.7-16.7,7.3-44   c0,0-9.6-24.9-13.6-39.1c0,0,17.2,27.8,22,46.2c0,0-5.9-75.9-11.7-83.6L245.5,66.2l-60.8,25.3L158.9,108.4z" fill="#3F2820" id="XMLID_1_"/></g></svg>