<?xml version="1.0" ?><!DOCTYPE svg  PUBLIC '-//W3C//DTD SVG 1.1//EN'  'http://www.w3.org/Graphics/SVG/1.1/DTD/svg11.dtd'><svg enable-background="new 0 0 50 50" id="Layer_1" version="1.1" viewBox="0 0 50 50" xml:space="preserve" xmlns="http://www.w3.org/2000/svg" xmlns:xlink="http://www.w3.org/1999/xlink"><path d="M26,10c-8.2,0-13,6.1-13,11c0,3,2,6,3,6s2,0,2-1s-2-2-2-5c0-4.4,4.8-8,10-8c4.6,0,7,3.2,7,7  c0,5-2.7,9-6,9c-1.8,0-3.4-1.2-3-3c0.5-2.2,1-2,2-6c0.3-1.4-0.4-3-2-3c-1.8,0-4,1.4-4,4c0,1.6,1,3,1,3s-2.2,7.9-2.6,9.3  C17.8,36,16.9,40,17.9,40s2.1-2,4.1-7c0.3-0.7,1-3,1-3c0.6,1.1,3.1,2,5,2c5.5,0,9-5.2,9-12C37,14.9,32.6,10,26,10z" fill="#C9151C" id="P_2_"/><path d="M25,1C11.7,1,1,11.7,1,25s10.7,24,24,24s24-10.7,24-24S38.3,1,25,1z M25,44C14.5,44,6,35.5,6,25S14.5,6,25,6  s19,8.5,19,19S35.5,44,25,44z" fill="#C9151C"/></svg>