<?xml version="1.0" ?><!DOCTYPE svg  PUBLIC '-//W3C//DTD SVG 1.1//EN'  'http://www.w3.org/Graphics/SVG/1.1/DTD/svg11.dtd'><svg enable-background="new 0 0 50 50" id="Layer_1" version="1.1" viewBox="0 0 50 50" xml:space="preserve" xmlns="http://www.w3.org/2000/svg" xmlns:xlink="http://www.w3.org/1999/xlink"><path d="M39.3,16.6c-1.1,0.5-2.6,1.1-3.8,1.2c1.2-0.7,2.4-2.4,2.9-3.8c-0.9,0.6-2,1.3-3.1,1.7L34.6,15  c-1.1-1.1-2.1-1.9-3.8-1.9c-3.3,0-5.7,2.5-5.7,5.7c0,0.4,0,0.7,0.1,0.9l-0.1,0c-5.7,0-9.5-1.2-12.4-4.8c-0.5,0.9-1,1.8-1,2.9  c0,2,1.3,3.7,2.9,4.8c-1,0-2.1-0.5-2.9-1c0,2.9,4,6.2,6.7,6.7c-1,1-4.4,0.1-4.8,0c0.8,2.3,3.2,3.8,5.7,3.8c-2,1.6-4.4,2.4-7.2,2.4  c-0.5,0-0.9,0-1.4-0.1c2.6,1.7,6.2,2.5,9.6,2.5c10.8,0,16.3-8.5,16.3-16.3c0-0.3,0-0.7,0-1C37.6,18.9,38.6,17.8,39.3,16.6z" fill="#2CA7E0" id="Brid_1_"/><path d="M25,1C11.7,1,1,11.7,1,25s10.7,24,24,24s24-10.7,24-24S38.3,1,25,1z M25,44C14.5,44,6,35.5,6,25S14.5,6,25,6  s19,8.5,19,19S35.5,44,25,44z" fill="#2CA7E0"/></svg>